<svg width="367.44500732421875px" height="120.8px" xmlns="http://www.w3.org/2000/svg" viewBox="66.27749633789062 14.600000000000001 367.44500732421875 120.8" style="background: rgba(0, 0, 0, 0);" preserveAspectRatio="xMidYMid"><defs><filter id="editing-extrusion" x="-100%" y="-100%" width="300%" height="300%"><feFlood result="color1" flood-color="#444"></feFlood><feConvolveMatrix order="8,8" divisor="1" kernelMatrix="1 0 0 0 0 0 0 0 0 1 0 0 0 0 0 0 0 0 1 0 0 0 0 0 0 0 0 1 0 0 0 0 0 0 0 0 1 0 0 0 0 0 0 0 0 1 0 0 0 0 0 0 0 0 1 0 0 0 0 0 0 0 0 1" in="SourceAlpha" result="extrude"></feConvolveMatrix><feComposite in="color1" in2="extrude" result="comp-extrude" operator="in"></feComposite><feOffset dx="4" dy="4" in="comp-extrude" result="offset-extrude"></feOffset><feMerge><feMergeNode in="offset-extrude"></feMergeNode><feMergeNode in="SourceGraphic"></feMergeNode></feMerge></filter></defs><g filter="url(#editing-extrusion)"><g transform="translate(123.92002320289612, 99)"><path d="M14.21 0L0.51 0L8.32-42.05L8.32-42.05Q14.66-42.75 23.90-42.75L23.90-42.75L23.90-42.75Q33.15-42.75 37.44-40.06L37.44-40.06L37.44-40.06Q41.73-37.38 41.73-31.97L41.73-31.97L41.73-31.97Q41.73-26.56 38.94-23.17L38.94-23.17L38.94-23.17Q36.16-19.78 31.36-18.69L31.36-18.69L31.36-18.69Q32.45-13.38 34.94-9.09L34.94-9.09L34.94-9.09Q37.25-5.06 39.94-3.78L39.94-3.78L39.94-3.78Q38.98-1.09 37.02 0.10L37.02 0.10L37.02 0.10Q35.07 1.28 32.29 1.28L32.29 1.28L32.29 1.28Q29.50 1.28 27.33-0.35L27.33-0.35L27.33-0.35Q25.15-1.98 23.42-4.99L23.42-4.99L23.42-4.99Q19.78-11.52 19.39-21.82L19.39-21.82L19.84-21.82L19.84-21.82Q24.58-21.95 26.94-24.42L26.94-24.42L26.94-24.42Q29.31-26.88 29.31-32.06L29.31-32.06L29.31-32.06Q29.31-38.53 23.87-38.78L23.87-38.78L22.46-38.78L22.46-38.78Q21.89-38.78 21.57-38.72L21.57-38.72L14.21 0ZM60.03-3.52L60.03-3.52L60.03-3.52Q58.05 1.28 51.71 1.28L51.71 1.28L51.71 1.28Q48.45 1.28 46.40-0.96L46.40-0.96L46.40-0.96Q44.67-2.94 44.67-4.93L44.67-4.93L44.67-4.93Q44.67-10.11 47.04-20.22L47.04-20.22L49.41-32.64L62.40-33.92L58.50-13.70L58.50-13.70Q57.41-8.96 57.41-7.30L57.41-7.30L57.41-7.30Q57.41-3.65 60.03-3.52ZM50.56-41.54L50.56-41.54L50.56-41.54Q50.56-44.03 52.64-45.38L52.64-45.38L52.64-45.38Q54.72-46.72 57.73-46.72L57.73-46.72L57.73-46.72Q60.74-46.72 62.56-45.38L62.56-45.38L62.56-45.38Q64.38-44.03 64.38-41.54L64.38-41.54L64.38-41.54Q64.38-39.04 62.37-37.76L62.37-37.76L62.37-37.76Q60.35-36.48 57.34-36.48L57.34-36.48L57.34-36.48Q54.34-36.48 52.45-37.76L52.45-37.76L52.45-37.76Q50.56-39.04 50.56-41.54ZM84.61-22.46L84.61-22.46L84.61-22.46Q85.50-24.83 85.50-26.88L85.50-26.88L85.50-26.88Q85.50-30.66 82.43-30.66L82.43-30.66L82.43-30.66Q80.83-30.66 79.52-29.22L79.52-29.22L79.52-29.22Q78.21-27.78 78.21-25.98L78.21-25.98L78.21-25.98Q78.21-24.70 79.23-23.68L79.23-23.68L79.23-23.68Q80.70-22.27 84.48-19.97L84.48-19.97L84.48-19.97Q88.26-17.66 89.70-15.78L89.70-15.78L89.70-15.78Q91.14-13.89 91.14-11.30L91.14-11.30L91.14-11.30Q91.14-8.70 89.89-6.34L89.89-6.34L89.89-6.34Q88.64-3.97 86.40-2.30L86.40-2.30L86.40-2.30Q81.60 1.28 73.92 1.28L73.92 1.28L73.92 1.28Q69.76 1.28 66.56-0.90L66.56-0.90L66.56-0.90Q63.36-3.01 63.36-5.50L63.36-5.50L63.36-5.50Q63.36-8 65.18-9.47L65.18-9.47L65.18-9.47Q67.01-10.94 69.70-10.94L69.70-10.94L69.70-10.94Q72.38-10.94 74.05-9.92L74.05-9.92L74.05-9.92Q73.22-7.81 73.22-6.40L73.22-6.40L73.22-6.40Q73.22-2.18 76.80-2.18L76.80-2.18L76.80-2.18Q78.34-2.18 79.36-3.14L79.36-3.14L79.36-3.14Q80.38-4.10 80.38-5.76L80.38-5.76L80.38-5.76Q80.38-9.02 74.88-12.48L74.88-12.48L74.88-12.48Q70.40-15.42 69.38-16.58L69.38-16.58L69.38-16.58Q67.65-18.62 67.65-21.18L67.65-21.18L67.65-21.18Q67.65-23.74 68.86-26.18L68.86-26.18L68.86-26.18Q70.08-28.61 72.32-30.34L72.32-30.34L72.32-30.34Q76.99-33.92 85.12-33.92L85.12-33.92L85.12-33.92Q89.28-33.92 91.74-32.26L91.74-32.26L91.74-32.26Q94.21-30.59 94.21-27.78L94.21-27.78L94.21-27.78Q94.21-24.96 92.51-23.36L92.51-23.36L92.51-23.36Q90.82-21.76 87.74-21.76L87.74-21.76L87.74-21.76Q85.63-21.76 84.61-22.46ZM128.77-7.10L128.77-7.10L128.77-7.10Q128.77-4.29 131.65-3.46L131.65-3.46L131.65-3.46Q130.94-1.09 128.19 0.19L128.19 0.19L128.19 0.19Q125.89 1.28 123.36 1.28L123.36 1.28L123.36 1.28Q120.83 1.28 119.52 0.61L119.52 0.61L119.52 0.61Q118.21-0.06 117.50-1.15L117.50-1.15L117.50-1.15Q116.35-2.82 116.35-5.95L116.35-5.95L116.35-5.95Q116.35-7.81 117.38-12.93L117.38-12.93L118.27-17.79L118.27-17.79Q119.36-23.36 119.36-25.41L119.36-25.41L119.36-25.41Q119.36-28.99 117.38-28.99L117.38-28.99L117.38-28.99Q114.88-28.99 113.28-25.34L113.28-25.34L113.28-25.34Q112.64-23.94 112.19-21.82L112.19-21.82L107.84 0L94.98 1.28L104-44.80L116.86-46.08L116.35-43.52L116.35-43.52Q114.56-33.66 113.02-30.34L113.02-30.34L113.02-30.34Q116.61-33.92 123.20-33.92L123.20-33.92L123.20-33.92Q130.18-33.92 131.46-29.31L131.46-29.31L131.46-29.31Q131.90-27.84 131.90-26.56L131.90-26.56L131.90-26.56Q131.90-25.28 131.81-24.29L131.81-24.29L131.81-24.29Q131.71-23.30 131.39-21.50L131.39-21.50L130.56-16.90L129.09-9.66L129.09-9.66Q128.77-8.19 128.77-7.10ZM139.62-1.92L139.62-1.92L139.62-1.92Q138.11-3.58 137.44-6.21L137.44-6.21L137.44-6.21Q136.77-8.83 136.77-13.12L136.77-13.12L136.77-13.12Q136.77-17.41 138.24-21.31L138.24-21.31L138.24-21.31Q139.71-25.22 142.40-28.03L142.40-28.03L142.40-28.03Q147.90-33.92 156.99-33.92L156.99-33.92L156.99-33.92Q160.26-33.92 162.62-32.83L162.62-32.83L173.57-33.92L168.83-8.96L168.83-8.96Q168.64-8.19 168.64-6.78L168.64-6.78L168.64-6.78Q168.64-5.38 169.50-4.48L169.50-4.48L169.50-4.48Q170.37-3.58 171.65-3.46L171.65-3.46L171.65-3.46Q171.01-1.28 168.67 0L168.67 0L168.67 0Q166.34 1.28 163.71 1.28L163.71 1.28L163.71 1.28Q161.09 1.28 159.33 0.29L159.33 0.29L159.33 0.29Q157.57-0.70 157.06-2.37L157.06-2.37L157.06-2.37Q156.03-0.77 153.86 0.26L153.86 0.26L153.86 0.26Q151.68 1.28 148.77 1.28L148.77 1.28L148.77 1.28Q145.86 1.28 143.49 0.51L143.49 0.51L143.49 0.51Q141.12-0.26 139.62-1.92ZM153.12-27.90L153.12-27.90L153.12-27.90Q152.38-26.75 151.74-24.80L151.74-24.80L151.74-24.80Q151.10-22.85 150.05-17.63L150.05-17.63L150.05-17.63Q148.99-12.42 148.99-8.70L148.99-8.70L148.99-8.70Q148.99-4.99 149.57-3.90L149.57-3.90L149.57-3.90Q150.14-2.82 151.17-2.82L151.17-2.82L151.17-2.82Q153.22-2.82 154.72-4.77L154.72-4.77L154.72-4.77Q156.22-6.72 156.80-10.18L156.80-10.18L160.19-28.93L160.19-28.93Q158.85-30.08 157.28-30.08L157.28-30.08L157.28-30.08Q155.71-30.08 154.78-29.57L154.78-29.57L154.78-29.57Q153.86-29.06 153.12-27.90ZM176.19-3.07L176.19-3.07L184.13-44.80L197.12-46.08L195.14-36.29L195.14-36.29Q194.43-33.28 193.54-31.17L193.54-31.17L193.54-31.17Q194.94-32.96 198.02-33.66L198.02-33.66L198.02-33.66Q198.91-33.92 200-33.92L200-33.92L200-33.92Q205.95-33.92 209.22-30.30L209.22-30.30L209.22-30.30Q212.48-26.69 212.48-19.71L212.48-19.71L212.48-19.71Q212.48-10.62 207.30-4.93L207.30-4.93L207.30-4.93Q201.73 1.28 191.62 1.28L191.62 1.28L191.62 1.28Q184.64 1.28 179.39-1.02L179.39-1.02L179.39-1.02Q177.54-1.86 176.19-3.07ZM192.45-22.40L189.06-3.65L189.06-3.65Q190.40-2.50 192.06-2.50L192.06-2.50L192.06-2.50Q193.73-2.50 194.69-3.14L194.69-3.14L194.69-3.14Q195.65-3.78 196.35-5.06L196.35-5.06L196.35-5.06Q198.27-8.51 199.81-19.07L199.81-19.07L199.81-19.07Q200.26-22.08 200.26-25.09L200.26-25.09L200.26-25.09Q200.26-28.10 199.58-29.06L199.58-29.06L199.58-29.06Q198.91-30.02 197.63-30.02L197.63-30.02L197.63-30.02Q193.73-30.02 192.45-22.40L192.45-22.40ZM248.51-7.10L248.51-7.10L248.51-7.10Q248.51-4.29 251.39-3.46L251.39-3.46L251.39-3.46Q250.69-1.09 247.94 0.19L247.94 0.19L247.94 0.19Q245.63 1.28 243.10 1.28L243.10 1.28L243.10 1.28Q240.58 1.28 239.26 0.61L239.26 0.61L239.26 0.61Q237.95-0.06 237.25-1.15L237.25-1.15L237.25-1.15Q236.10-2.82 236.10-5.95L236.10-5.95L236.10-5.95Q236.10-7.81 237.12-12.93L237.12-12.93L238.02-17.79L238.02-17.79Q239.10-23.36 239.10-25.41L239.10-25.41L239.10-25.41Q239.10-28.99 237.12-28.99L237.12-28.99L237.12-28.99Q234.62-28.99 233.02-25.34L233.02-25.34L233.02-25.34Q232.38-23.94 231.94-21.82L231.94-21.82L227.58 0L214.72 1.28L223.74-44.80L236.61-46.08L236.10-43.52L236.10-43.52Q234.30-33.66 232.77-30.34L232.77-30.34L232.77-30.34Q236.35-33.92 242.94-33.92L242.94-33.92L242.94-33.92Q249.92-33.92 251.20-29.31L251.20-29.31L251.20-29.31Q251.65-27.84 251.65-26.56L251.65-26.56L251.65-26.56Q251.65-25.28 251.55-24.29L251.55-24.29L251.55-24.29Q251.46-23.30 251.14-21.50L251.14-21.50L250.30-16.90L248.83-9.66L248.83-9.66Q248.51-8.19 248.51-7.10Z" fill="#ccc"></path></g></g><style>text {
  font-size: 64px;
  font-family: Arial Black;
  dominant-baseline: central;
  text-anchor: middle;
}</style></svg>